<?xml version="1.0" standalone="no"?>
<!DOCTYPE svg PUBLIC "-//W3C//DTD SVG 20010904//EN"
 "http://www.w3.org/TR/2001/REC-SVG-20010904/DTD/svg10.dtd">
<svg version="1.0" xmlns="http://www.w3.org/2000/svg"
 width="100.000000pt" height="100.000000pt" viewBox="0 0 100.000000 100.000000"
 preserveAspectRatio="xMidYMid meet">
<metadata>
Created by potrace 1.14, written by Peter Selinger 2001-2017
</metadata>
<g transform="translate(0.000000,100.000000) scale(0.100000,-0.100000)"
fill="#000000" stroke="none">
<path d="M420 694 c-6 -14 -10 -41 -10 -60 0 -38 -9 -43 -28 -14 -13 21 -56
27 -67 10 -3 -5 -17 -10 -29 -10 -24 0 -76 -56 -76 -82 0 -23 22 -38 54 -37
l31 1 -29 7 c-38 8 -57 38 -35 54 8 7 18 20 22 31 5 13 14 17 32 14 14 -3 30
1 36 8 16 20 37 17 51 -6 7 -11 17 -20 23 -20 6 0 9 -16 7 -39 -3 -34 -8 -40
-30 -44 l-27 -4 26 -2 c15 0 32 -8 39 -16 9 -10 32 -15 76 -15 44 0 67 -5 78
-16 20 -20 20 -25 -1 -63 -24 -42 -60 -42 -75 -1 -12 35 -47 48 -84 31 -52
-23 -19 -117 52 -147 65 -27 166 -11 199 32 6 7 33 15 60 17 32 2 19 4 -37 5
-64 2 -91 6 -102 18 -9 8 -16 18 -16 20 0 15 23 44 34 44 8 0 19 7 27 16 8 9
21 13 35 10 17 -5 22 -3 18 8 -7 17 22 46 46 46 10 0 25 -8 32 -18 8 -11 25
-18 43 -18 22 1 33 -5 40 -22 5 -12 18 -25 27 -28 21 -6 24 -44 6 -62 -7 -7
-28 -13 -47 -14 l-36 -1 32 -4 c46 -6 73 12 73 47 0 16 -8 35 -17 42 -10 7
-23 22 -29 33 -7 13 -22 20 -40 20 -16 0 -37 8 -47 18 -13 13 -28 18 -50 14
-25 -3 -39 2 -64 24 -23 20 -47 29 -88 34 -51 7 -56 9 -51 29 3 11 6 24 6 29
0 4 28 7 63 7 34 0 67 4 73 8 18 12 24 41 14 67 -9 25 -11 25 -120 25 -109 0
-111 0 -120 -26z m225 -4 c3 -6 3 -19 0 -30 -6 -18 -15 -20 -80 -20 l-73 0 -4
-42 c-6 -54 -4 -58 35 -58 18 0 49 -5 69 -10 55 -16 94 -80 49 -80 -11 0 -23
-5 -26 -10 -4 -6 -18 2 -35 20 -26 28 -33 30 -95 30 l-68 0 7 97 c4 54 10 101
12 105 8 12 202 10 209 -2z m-177 -305 c6 -29 15 -36 64 -47 24 -5 59 -12 78
-17 l35 -7 -34 -18 c-53 -28 -142 -19 -181 19 -29 27 -40 72 -23 89 15 14 58
1 61 -19z"/>
<path d="M447 667 c-4 -10 -7 -37 -6 -60 l1 -42 9 45 c10 52 8 87 -4 57z"/>
<path d="M562 510 c21 -4 47 -15 58 -25 11 -10 20 -13 20 -8 0 19 -48 43 -82
42 l-33 -1 37 -8z"/>
<path d="M430 331 c0 -5 7 -12 16 -15 14 -5 15 -4 4 9 -14 17 -20 19 -20 6z"/>
<path d="M530 300 l-35 -7 40 -2 c22 0 47 4 55 9 12 8 11 9 -5 9 -11 -1 -36
-5 -55 -9z"/>
</g>
</svg>
